<mxfile host="65bd71144e">
    <diagram id="Pd-xCxTJ2BgLcjbs8npq" name="Page-1">
        <mxGraphModel dx="1382" dy="495" grid="1" gridSize="10" guides="1" tooltips="1" connect="1" arrows="1" fold="1" page="1" pageScale="1" pageWidth="850" pageHeight="1100" math="0" shadow="0">
            <root>
                <mxCell id="0"/>
                <mxCell id="1" parent="0"/>
                <mxCell id="37" style="edgeStyle=orthogonalEdgeStyle;html=1;exitX=0.974;exitY=0.499;exitDx=0;exitDy=0;exitPerimeter=0;entryX=0;entryY=0.75;entryDx=0;entryDy=0;entryPerimeter=0;" edge="1" parent="1" source="5" target="27">
                    <mxGeometry relative="1" as="geometry">
                        <mxPoint x="430" y="490" as="targetPoint"/>
                        <Array as="points">
                            <mxPoint x="300" y="295"/>
                            <mxPoint x="300" y="235"/>
                        </Array>
                    </mxGeometry>
                </mxCell>
                <mxCell id="5" value="" style="verticalLabelPosition=bottom;shadow=0;dashed=0;align=center;html=1;verticalAlign=top;shape=mxgraph.electrical.logic_gates.inverter_2" parent="1" vertex="1">
                    <mxGeometry x="175" y="270" width="100" height="50" as="geometry"/>
                </mxCell>
                <mxCell id="23" style="edgeStyle=orthogonalEdgeStyle;html=1;entryX=0;entryY=0.75;entryDx=0;entryDy=0;entryPerimeter=0;" parent="1" source="6" target="16" edge="1">
                    <mxGeometry relative="1" as="geometry">
                        <mxPoint x="340" y="360" as="targetPoint"/>
                        <Array as="points">
                            <mxPoint x="150" y="295"/>
                            <mxPoint x="150" y="425"/>
                        </Array>
                    </mxGeometry>
                </mxCell>
                <mxCell id="6" value="A" style="text;html=1;align=center;verticalAlign=middle;whiteSpace=wrap;rounded=0;" parent="1" vertex="1">
                    <mxGeometry x="-20" y="280" width="60" height="30" as="geometry"/>
                </mxCell>
                <mxCell id="7" value="B" style="text;html=1;align=center;verticalAlign=middle;whiteSpace=wrap;rounded=0;" parent="1" vertex="1">
                    <mxGeometry x="-20" y="380" width="60" height="30" as="geometry"/>
                </mxCell>
                <mxCell id="8" value="" style="verticalLabelPosition=bottom;shadow=0;dashed=0;align=center;html=1;verticalAlign=top;shape=mxgraph.electrical.logic_gates.logic_gate;operation=and;" parent="1" vertex="1">
                    <mxGeometry x="340" y="280" width="100" height="60" as="geometry"/>
                </mxCell>
                <mxCell id="9" style="edgeStyle=none;html=1;entryX=0.035;entryY=0.25;entryDx=0;entryDy=0;entryPerimeter=0;" parent="1" source="5" target="8" edge="1">
                    <mxGeometry relative="1" as="geometry"/>
                </mxCell>
                <mxCell id="12" value="" style="verticalLabelPosition=bottom;shadow=0;dashed=0;align=center;html=1;verticalAlign=top;shape=mxgraph.electrical.logic_gates.inverter_2" parent="1" vertex="1">
                    <mxGeometry x="190" y="370" width="100" height="50" as="geometry"/>
                </mxCell>
                <mxCell id="16" value="" style="verticalLabelPosition=bottom;shadow=0;dashed=0;align=center;html=1;verticalAlign=top;shape=mxgraph.electrical.logic_gates.logic_gate;operation=and;" parent="1" vertex="1">
                    <mxGeometry x="330" y="380" width="100" height="60" as="geometry"/>
                </mxCell>
                <mxCell id="17" style="edgeStyle=none;html=1;entryX=0.035;entryY=0.25;entryDx=0;entryDy=0;entryPerimeter=0;" parent="1" source="12" target="16" edge="1">
                    <mxGeometry relative="1" as="geometry"/>
                </mxCell>
                <mxCell id="30" style="edgeStyle=none;html=1;entryX=0;entryY=0.5;entryDx=0;entryDy=0;" parent="1" source="18" target="32" edge="1">
                    <mxGeometry relative="1" as="geometry">
                        <mxPoint x="600" y="395" as="targetPoint"/>
                    </mxGeometry>
                </mxCell>
                <mxCell id="18" value="" style="verticalLabelPosition=bottom;shadow=0;dashed=0;align=center;html=1;verticalAlign=top;shape=mxgraph.electrical.logic_gates.logic_gate;operation=or;" parent="1" vertex="1">
                    <mxGeometry x="460" y="365" width="100" height="60" as="geometry"/>
                </mxCell>
                <mxCell id="19" style="edgeStyle=orthogonalEdgeStyle;html=1;entryX=0;entryY=0.25;entryDx=0;entryDy=0;entryPerimeter=0;exitX=1;exitY=0.5;exitDx=0;exitDy=0;exitPerimeter=0;" parent="1" source="8" target="18" edge="1">
                    <mxGeometry relative="1" as="geometry">
                        <Array as="points">
                            <mxPoint x="450" y="310"/>
                            <mxPoint x="450" y="380"/>
                        </Array>
                    </mxGeometry>
                </mxCell>
                <mxCell id="20" style="edgeStyle=orthogonalEdgeStyle;html=1;entryX=0;entryY=0.75;entryDx=0;entryDy=0;entryPerimeter=0;" parent="1" source="16" target="18" edge="1">
                    <mxGeometry relative="1" as="geometry"/>
                </mxCell>
                <mxCell id="21" style="edgeStyle=none;html=1;entryX=0;entryY=0.5;entryDx=0;entryDy=0;entryPerimeter=0;" parent="1" source="6" target="5" edge="1">
                    <mxGeometry relative="1" as="geometry"/>
                </mxCell>
                <mxCell id="22" style="edgeStyle=orthogonalEdgeStyle;html=1;entryX=0;entryY=0.5;entryDx=0;entryDy=0;entryPerimeter=0;exitX=1;exitY=0.5;exitDx=0;exitDy=0;" parent="1" source="7" target="12" edge="1">
                    <mxGeometry relative="1" as="geometry"/>
                </mxCell>
                <mxCell id="24" style="edgeStyle=orthogonalEdgeStyle;html=1;entryX=0;entryY=0.75;entryDx=0;entryDy=0;entryPerimeter=0;" parent="1" source="7" target="8" edge="1">
                    <mxGeometry relative="1" as="geometry">
                        <Array as="points">
                            <mxPoint x="130" y="395"/>
                            <mxPoint x="130" y="325"/>
                        </Array>
                    </mxGeometry>
                </mxCell>
                <mxCell id="31" style="edgeStyle=orthogonalEdgeStyle;html=1;entryX=-0.047;entryY=0.472;entryDx=0;entryDy=0;entryPerimeter=0;" parent="1" source="27" target="33" edge="1">
                    <mxGeometry relative="1" as="geometry">
                        <mxPoint x="600" y="500" as="targetPoint"/>
                    </mxGeometry>
                </mxCell>
                <mxCell id="27" value="" style="verticalLabelPosition=bottom;shadow=0;dashed=0;align=center;html=1;verticalAlign=top;shape=mxgraph.electrical.logic_gates.logic_gate;operation=and;" parent="1" vertex="1">
                    <mxGeometry x="440" y="190" width="100" height="60" as="geometry"/>
                </mxCell>
                <mxCell id="29" style="edgeStyle=orthogonalEdgeStyle;html=1;entryX=0;entryY=0.25;entryDx=0;entryDy=0;entryPerimeter=0;" parent="1" source="7" target="27" edge="1">
                    <mxGeometry relative="1" as="geometry">
                        <Array as="points">
                            <mxPoint x="110" y="395"/>
                            <mxPoint x="110" y="205"/>
                        </Array>
                        <mxPoint x="240" y="190" as="targetPoint"/>
                    </mxGeometry>
                </mxCell>
                <mxCell id="32" value="Hiá»‡u (D)" style="text;html=1;align=center;verticalAlign=middle;whiteSpace=wrap;rounded=0;" parent="1" vertex="1">
                    <mxGeometry x="620" y="380" width="60" height="30" as="geometry"/>
                </mxCell>
                <mxCell id="33" value="borrow" style="text;html=1;align=center;verticalAlign=middle;whiteSpace=wrap;rounded=0;" parent="1" vertex="1">
                    <mxGeometry x="630" y="205" width="60" height="30" as="geometry"/>
                </mxCell>
                <mxCell id="34" value="&lt;span style=&quot;border-color: currentcolor; position: relative; width: min-content; display: inline-block; color: rgb(173, 186, 199); font-family: KaTeX_Main, &amp;quot;Times New Roman&amp;quot;, serif; font-size: 16.94px;&quot; class=&quot;base&quot;&gt;&lt;span style=&quot;border-color: currentcolor; font-family: KaTeX_Math; font-style: italic; margin-right: 0.02778em;&quot; class=&quot;mord mathnormal&quot;&gt;D&lt;/span&gt;&lt;span style=&quot;border-color: currentcolor; display: inline-block; margin-right: 0.2778em;&quot; class=&quot;mspace&quot;&gt;&lt;/span&gt;&lt;span style=&quot;border-color: currentcolor;&quot; class=&quot;mrel&quot;&gt;=&lt;/span&gt;&lt;span style=&quot;border-color: currentcolor; display: inline-block; margin-right: 0.2778em;&quot; class=&quot;mspace&quot;&gt;&lt;/span&gt;&lt;/span&gt;&lt;span style=&quot;border-color: currentcolor; position: relative; width: min-content; display: inline-block; color: rgb(173, 186, 199); font-family: KaTeX_Main, &amp;quot;Times New Roman&amp;quot;, serif; font-size: 16.94px;&quot; class=&quot;base&quot;&gt;&lt;span style=&quot;border-color: currentcolor; display: inline-block; height: 0.8833em;&quot; class=&quot;strut&quot;&gt;&lt;/span&gt;&lt;span style=&quot;border-color: currentcolor;&quot; class=&quot;mord overline&quot;&gt;&lt;span style=&quot;border-color: currentcolor; border-collapse: collapse; display: inline-table; table-layout: fixed;&quot; class=&quot;vlist-t&quot;&gt;&lt;span style=&quot;border-color: currentcolor; display: table-row;&quot; class=&quot;vlist-r&quot;&gt;&lt;span style=&quot;border-color: currentcolor; display: table-cell; position: relative; vertical-align: bottom; height: 0.8833em;&quot; class=&quot;vlist&quot;&gt;&lt;span style=&quot;border-color: currentcolor; display: block; height: 0px; position: relative; top: -3em;&quot;&gt;&lt;span style=&quot;border-color: currentcolor; display: inline-block; overflow: hidden; width: 0px; height: 3em;&quot; class=&quot;pstrut&quot;&gt;&lt;/span&gt;&lt;span style=&quot;border-color: currentcolor; display: inline-block;&quot; class=&quot;mord&quot;&gt;&lt;span style=&quot;border-color: currentcolor; font-family: KaTeX_Math; font-style: italic;&quot; class=&quot;mord mathnormal&quot;&gt;A&lt;/span&gt;&lt;/span&gt;&lt;/span&gt;&lt;span style=&quot;border-color: currentcolor; display: block; height: 0px; position: relative; top: -3.8033em;&quot;&gt;&lt;span style=&quot;border-color: currentcolor; display: inline-block; overflow: hidden; width: 0px; height: 3em;&quot; class=&quot;pstrut&quot;&gt;&lt;/span&gt;&lt;span style=&quot;border-color: currentcolor; display: inline-block; min-height: 1px; border-bottom-style: solid; width: 12.7125px; border-bottom-width: 0.04em;&quot; class=&quot;overline-line&quot;&gt;&lt;/span&gt;&lt;/span&gt;&lt;/span&gt;&lt;/span&gt;&lt;/span&gt;&lt;/span&gt;&lt;span style=&quot;border-color: currentcolor; display: inline-block; margin-right: 0.2222em;&quot; class=&quot;mspace&quot;&gt;&lt;/span&gt;&lt;span style=&quot;border-color: currentcolor;&quot; class=&quot;mbin&quot;&gt;â‹…&lt;/span&gt;&lt;span style=&quot;border-color: currentcolor; display: inline-block; margin-right: 0.2222em;&quot; class=&quot;mspace&quot;&gt;&lt;/span&gt;&lt;/span&gt;&lt;span style=&quot;border-color: currentcolor; position: relative; width: min-content; display: inline-block; color: rgb(173, 186, 199); font-family: KaTeX_Main, &amp;quot;Times New Roman&amp;quot;, serif; font-size: 16.94px;&quot; class=&quot;base&quot;&gt;&lt;span style=&quot;border-color: currentcolor; display: inline-block; height: 0.7667em; vertical-align: -0.0833em;&quot; class=&quot;strut&quot;&gt;&lt;/span&gt;&lt;span style=&quot;border-color: currentcolor; font-family: KaTeX_Math; font-style: italic; margin-right: 0.05017em;&quot; class=&quot;mord mathnormal&quot;&gt;B&lt;/span&gt;&lt;span style=&quot;border-color: currentcolor; display: inline-block; margin-right: 0.2222em;&quot; class=&quot;mspace&quot;&gt;&lt;/span&gt;&lt;span style=&quot;border-color: currentcolor;&quot; class=&quot;mbin&quot;&gt;+&lt;/span&gt;&lt;span style=&quot;border-color: currentcolor; display: inline-block; margin-right: 0.2222em;&quot; class=&quot;mspace&quot;&gt;&lt;/span&gt;&lt;/span&gt;&lt;span style=&quot;border-color: currentcolor; position: relative; width: min-content; display: inline-block; color: rgb(173, 186, 199); font-family: KaTeX_Main, &amp;quot;Times New Roman&amp;quot;, serif; font-size: 16.94px;&quot; class=&quot;base&quot;&gt;&lt;span style=&quot;border-color: currentcolor; display: inline-block; height: 0.6833em;&quot; class=&quot;strut&quot;&gt;&lt;/span&gt;&lt;span style=&quot;border-color: currentcolor; font-family: KaTeX_Math; font-style: italic;&quot; class=&quot;mord mathnormal&quot;&gt;A&lt;/span&gt;&lt;span style=&quot;border-color: currentcolor; display: inline-block; margin-right: 0.2222em;&quot; class=&quot;mspace&quot;&gt;&lt;/span&gt;&lt;span style=&quot;border-color: currentcolor;&quot; class=&quot;mbin&quot;&gt;â‹…&lt;/span&gt;&lt;span style=&quot;border-color: currentcolor; display: inline-block; margin-right: 0.2222em;&quot; class=&quot;mspace&quot;&gt;&lt;/span&gt;&lt;/span&gt;&lt;span style=&quot;border-color: currentcolor; position: relative; width: min-content; display: inline-block; color: rgb(173, 186, 199); font-family: KaTeX_Main, &amp;quot;Times New Roman&amp;quot;, serif; font-size: 16.94px;&quot; class=&quot;base&quot;&gt;&lt;span style=&quot;border-color: currentcolor; display: inline-block; height: 0.8833em;&quot; class=&quot;strut&quot;&gt;&lt;/span&gt;&lt;span style=&quot;border-color: currentcolor;&quot; class=&quot;mord overline&quot;&gt;&lt;span style=&quot;border-color: currentcolor; border-collapse: collapse; display: inline-table; table-layout: fixed;&quot; class=&quot;vlist-t&quot;&gt;&lt;span style=&quot;border-color: currentcolor; display: table-row;&quot; class=&quot;vlist-r&quot;&gt;&lt;span style=&quot;border-color: currentcolor; display: table-cell; position: relative; vertical-align: bottom; height: 0.8833em;&quot; class=&quot;vlist&quot;&gt;&lt;span style=&quot;border-color: currentcolor; display: block; height: 0px; position: relative; top: -3em;&quot;&gt;&lt;span style=&quot;border-color: currentcolor; display: inline-block; overflow: hidden; width: 0px; height: 3em;&quot; class=&quot;pstrut&quot;&gt;&lt;/span&gt;&lt;span style=&quot;border-color: currentcolor; display: inline-block;&quot; class=&quot;mord&quot;&gt;&lt;span style=&quot;border-color: currentcolor; font-family: KaTeX_Math; font-style: italic; margin-right: 0.05017em;&quot; class=&quot;mord mathnormal&quot;&gt;B&lt;/span&gt;&lt;/span&gt;&lt;/span&gt;&lt;span style=&quot;border-color: currentcolor; display: block; height: 0px; position: relative; top: -3.8033em;&quot;&gt;&lt;span style=&quot;border-color: currentcolor; display: inline-block; overflow: hidden; width: 0px; height: 3em;&quot; class=&quot;pstrut&quot;&gt;&lt;/span&gt;&lt;span style=&quot;border-color: currentcolor; display: inline-block; min-height: 1px; border-bottom-style: solid; width: 13.7063px; border-bottom-width: 0.04em;&quot; class=&quot;overline-line&quot;&gt;&lt;/span&gt;&lt;/span&gt;&lt;/span&gt;&lt;/span&gt;&lt;/span&gt;&lt;/span&gt;&lt;/span&gt;" style="text;html=1;align=center;verticalAlign=middle;resizable=0;points=[];autosize=1;strokeColor=none;fillColor=none;" parent="1" vertex="1">
                    <mxGeometry x="510" y="310" width="140" height="30" as="geometry"/>
                </mxCell>
                <mxCell id="35" value="&lt;span class=&quot;base&quot; style=&quot;border-color: currentcolor; position: relative; white-space: nowrap; width: min-content; display: inline-block; color: rgb(173, 186, 199); font-family: KaTeX_Main, &amp;quot;Times New Roman&amp;quot;, serif; font-size: 16.94px; font-style: normal; font-variant-ligatures: normal; font-variant-caps: normal; font-weight: 400; letter-spacing: normal; orphans: 2; text-align: center; text-indent: 0px; text-transform: none; widows: 2; word-spacing: 0px; -webkit-text-stroke-width: 0px; text-decoration-thickness: initial; text-decoration-style: initial; text-decoration-color: initial;&quot;&gt;&lt;span class=&quot;mord text&quot; style=&quot;border-color: currentcolor;&quot;&gt;&lt;span class=&quot;mord&quot; style=&quot;border-color: currentcolor;&quot;&gt;Borrow&lt;/span&gt;&lt;/span&gt;&lt;span class=&quot;mspace&quot; style=&quot;border-color: currentcolor; display: inline-block; margin-right: 0.2778em;&quot;&gt;&lt;/span&gt;&lt;span class=&quot;mrel&quot; style=&quot;border-color: currentcolor;&quot;&gt;=&lt;/span&gt;&lt;span class=&quot;mspace&quot; style=&quot;border-color: currentcolor; display: inline-block; margin-right: 0.2778em;&quot;&gt;&lt;/span&gt;&lt;/span&gt;&lt;span class=&quot;base&quot; style=&quot;border-color: currentcolor; position: relative; white-space: nowrap; width: min-content; display: inline-block; color: rgb(173, 186, 199); font-family: KaTeX_Main, &amp;quot;Times New Roman&amp;quot;, serif; font-size: 16.94px; font-style: normal; font-variant-ligatures: normal; font-variant-caps: normal; font-weight: 400; letter-spacing: normal; orphans: 2; text-align: center; text-indent: 0px; text-transform: none; widows: 2; word-spacing: 0px; -webkit-text-stroke-width: 0px; text-decoration-thickness: initial; text-decoration-style: initial; text-decoration-color: initial;&quot;&gt;&lt;span class=&quot;strut&quot; style=&quot;border-color: currentcolor; display: inline-block; height: 0.8833em;&quot;&gt;&lt;/span&gt;&lt;span class=&quot;mord overline&quot; style=&quot;border-color: currentcolor;&quot;&gt;&lt;span class=&quot;vlist-t&quot; style=&quot;border-color: currentcolor; border-collapse: collapse; display: inline-table; table-layout: fixed;&quot;&gt;&lt;span class=&quot;vlist-r&quot; style=&quot;border-color: currentcolor; display: table-row;&quot;&gt;&lt;span class=&quot;vlist&quot; style=&quot;border-color: currentcolor; display: table-cell; position: relative; vertical-align: bottom; height: 0.8833em;&quot;&gt;&lt;span style=&quot;border-color: currentcolor; display: block; height: 0px; position: relative; top: -3em;&quot;&gt;&lt;span class=&quot;pstrut&quot; style=&quot;border-color: currentcolor; display: inline-block; overflow: hidden; width: 0px; height: 3em;&quot;&gt;&lt;/span&gt;&lt;span class=&quot;mord&quot; style=&quot;border-color: currentcolor; display: inline-block;&quot;&gt;&lt;span class=&quot;mord mathnormal&quot; style=&quot;border-color: currentcolor; font-family: KaTeX_Math; font-style: italic;&quot;&gt;A&lt;/span&gt;&lt;/span&gt;&lt;/span&gt;&lt;span style=&quot;border-color: currentcolor; display: block; height: 0px; position: relative; top: -3.8033em;&quot;&gt;&lt;span class=&quot;pstrut&quot; style=&quot;border-color: currentcolor; display: inline-block; overflow: hidden; width: 0px; height: 3em;&quot;&gt;&lt;/span&gt;&lt;span class=&quot;overline-line&quot; style=&quot;border-color: currentcolor; display: inline-block; min-height: 1px; border-bottom-style: solid; width: 12.7125px; border-bottom-width: 0.04em;&quot;&gt;&lt;/span&gt;&lt;/span&gt;&lt;/span&gt;&lt;/span&gt;&lt;/span&gt;&lt;/span&gt;&lt;span class=&quot;mspace&quot; style=&quot;border-color: currentcolor; display: inline-block; margin-right: 0.2222em;&quot;&gt;&lt;/span&gt;&lt;span class=&quot;mbin&quot; style=&quot;border-color: currentcolor;&quot;&gt;â‹…&lt;/span&gt;&lt;span class=&quot;mspace&quot; style=&quot;border-color: currentcolor; display: inline-block; margin-right: 0.2222em;&quot;&gt;&lt;/span&gt;&lt;/span&gt;&lt;span class=&quot;base&quot; style=&quot;border-color: currentcolor; position: relative; white-space: nowrap; width: min-content; display: inline-block; color: rgb(173, 186, 199); font-family: KaTeX_Main, &amp;quot;Times New Roman&amp;quot;, serif; font-size: 16.94px; font-style: normal; font-variant-ligatures: normal; font-variant-caps: normal; font-weight: 400; letter-spacing: normal; orphans: 2; text-align: center; text-indent: 0px; text-transform: none; widows: 2; word-spacing: 0px; -webkit-text-stroke-width: 0px; text-decoration-thickness: initial; text-decoration-style: initial; text-decoration-color: initial;&quot;&gt;&lt;span class=&quot;strut&quot; style=&quot;border-color: currentcolor; display: inline-block; height: 0.6833em;&quot;&gt;&lt;/span&gt;&lt;span class=&quot;mord mathnormal&quot; style=&quot;border-color: currentcolor; font-family: KaTeX_Math; font-style: italic; margin-right: 0.05017em;&quot;&gt;B&lt;/span&gt;&lt;/span&gt;" style="text;whiteSpace=wrap;html=1;" parent="1" vertex="1">
                    <mxGeometry x="520" y="260" width="140" height="40" as="geometry"/>
                </mxCell>
            </root>
        </mxGraphModel>
    </diagram>
</mxfile>